<?xml version="1.0" standalone="no"?>
<!DOCTYPE svg PUBLIC "-//W3C//DTD SVG 20010904//EN"
 "http://www.w3.org/TR/2001/REC-SVG-20010904/DTD/svg10.dtd">
<svg version="1.0" xmlns="http://www.w3.org/2000/svg"
 width="1024.000000pt" height="1024.000000pt" viewBox="0 0 1024.000000 1024.000000"
 preserveAspectRatio="xMidYMid meet">
<metadata>
Created by potrace 1.14, written by Peter Selinger 2001-2017
</metadata>
<g transform="translate(0.000000,1024.000000) scale(0.100000,-0.100000)"
fill="#000000" stroke="none">
<path d="M2706 5370 c-1325 -1893 -2406 -3443 -2404 -3446 3 -2 2174 -3 4825
-2 l4821 3 -2409 3440 c-1325 1892 -2413 3441 -2417 3443 -5 1 -1092 -1546
-2416 -3438z m2615 2524 c107 -153 198 -285 203 -295 7 -14 -34 -78 -195 -308
-111 -160 -206 -291 -209 -291 -3 0 -98 131 -209 291 -161 230 -202 294 -195
308 16 33 397 571 404 571 4 0 94 -124 201 -276z m-630 -927 c161 -231 200
-293 193 -307 -12 -27 -398 -579 -404 -579 -6 0 -392 552 -404 579 -6 14 33
77 195 309 112 160 207 290 211 289 4 -2 98 -133 209 -291z m1277 2 c159 -227
202 -295 195 -309 -12 -27 -397 -579 -403 -579 -6 0 -391 552 -403 578 -7 15
34 80 195 310 111 160 205 291 208 291 3 0 97 -131 208 -291z m-1917 -919
c105 -151 194 -281 196 -287 5 -14 -393 -588 -407 -588 -5 0 -99 130 -210 288
-162 231 -201 293 -194 307 5 11 97 145 204 299 148 212 198 276 207 268 6 -7
98 -136 204 -287z m1273 10 c108 -155 199 -287 202 -294 6 -14 -391 -591 -406
-591 -17 0 -412 576 -406 591 9 25 398 574 406 574 4 0 96 -126 204 -280z
m1282 -2 c109 -156 198 -290 198 -299 1 -14 -393 -589 -404 -589 -11 0 -405
575 -404 589 0 19 392 581 404 581 4 0 97 -127 206 -282z m-3196 -921 c128
-182 200 -294 196 -303 -10 -26 -398 -574 -406 -574 -9 0 -413 574 -412 585 1
14 406 585 413 583 4 -2 98 -133 209 -291z m1280 0 c126 -180 200 -294 196
-303 -9 -25 -398 -574 -406 -574 -8 0 -397 549 -406 574 -6 15 394 598 408
594 4 -2 97 -133 208 -291z m1275 6 c110 -158 200 -294 199 -302 0 -18 -393
-581 -404 -581 -12 0 -404 563 -404 581 -1 14 393 589 404 589 3 0 95 -129
205 -287z m1286 -6 c157 -226 199 -293 193 -307 -17 -32 -397 -570 -404 -570
-7 0 -388 538 -404 571 -7 14 34 78 195 309 112 159 206 289 211 288 4 -2 98
-133 209 -291z m-4491 -898 c107 -154 199 -288 204 -299 7 -15 -32 -76 -195
-309 -112 -160 -206 -291 -209 -291 -11 0 -405 574 -405 590 0 16 394 589 405
589 3 0 93 -126 200 -280z m1280 0 c107 -154 199 -288 204 -298 6 -15 -34 -79
-195 -310 -112 -160 -206 -290 -209 -290 -3 0 -97 130 -209 290 -162 232 -202
295 -195 309 12 27 398 579 404 579 3 0 93 -126 200 -280z m1280 0 c107 -154
199 -288 204 -298 6 -15 -34 -79 -195 -310 -112 -159 -206 -290 -209 -290 -3
0 -97 131 -209 290 -161 231 -201 295 -195 310 13 26 398 578 404 578 3 0 93
-126 200 -280z m2768 -314 c-4 -15 -401 -584 -408 -584 -11 0 -405 574 -404
588 0 13 281 424 381 559 l24 33 205 -292 c113 -161 204 -298 202 -304z
m-1482 303 c109 -156 198 -290 198 -299 1 -15 -393 -588 -404 -588 -11 0 -405
573 -404 588 0 19 392 581 404 581 4 0 97 -127 206 -282z m-4478 -915 c111
-159 202 -292 203 -296 1 -5 -113 -173 -252 -373 l-254 -363 -418 -1 -419 0
34 48 c19 26 227 323 462 660 236 336 432 612 436 612 3 0 97 -129 208 -287z
m1281 -3 c112 -160 201 -296 198 -303 -11 -28 -398 -572 -407 -572 -5 0 -101
130 -213 289 l-204 290 206 293 c113 161 208 293 211 293 3 0 98 -131 209
-290z m1280 0 c112 -160 201 -296 198 -303 -10 -28 -398 -572 -407 -572 -9 0
-397 544 -407 572 -5 12 394 593 407 593 3 0 98 -131 209 -290z m1280 0 c112
-160 201 -296 198 -303 -10 -26 -398 -572 -407 -572 -9 0 -397 545 -407 572
-5 12 394 593 407 593 3 0 98 -131 209 -290z m1281 -3 c111 -158 200 -293 197
-300 -10 -26 -399 -572 -407 -572 -9 0 -397 546 -407 572 -6 14 397 595 408
591 4 -2 98 -133 209 -291z m1537 -367 l463 -660 -418 2 -417 3 -252 360
c-139 198 -253 364 -253 368 0 10 403 587 410 587 3 0 213 -297 467 -660z
m-6080 -455 l142 -205 -289 0 -289 0 142 205 c78 112 144 204 147 204 3 0 69
-92 147 -204z m1273 9 c74 -108 137 -200 138 -205 2 -5 -110 -9 -278 -9 -176
0 -280 4 -278 10 5 15 273 399 278 399 3 0 66 -88 140 -195z m1280 0 c74 -108
137 -200 138 -205 2 -5 -112 -9 -278 -9 -165 0 -280 4 -278 9 6 16 273 400
278 400 3 0 66 -88 140 -195z m1284 -8 c75 -107 136 -197 136 -200 0 -3 -126
-6 -280 -6 -154 0 -280 3 -280 6 0 11 272 394 280 394 5 0 69 -87 144 -194z
m1280 0 c75 -107 136 -197 136 -200 0 -3 -126 -6 -280 -6 -154 0 -280 3 -280
6 0 11 272 394 280 394 5 0 69 -87 144 -194z"/>
</g>
</svg>
